<svg xmlns="http://www.w3.org/2000/svg" width="159.958" height="244.303" viewBox="0 0 159.958 244.303">
  <g id="Gruppe_1468" data-name="Gruppe 1468" transform="translate(-137.871 -142)">
    <g id="_2CONACT-logo_RGB-skinnyframe_Startseite" data-name="2CONACT-logo_RGB-skinnyframe_Startseite" transform="translate(137.871 142)">
      <path id="Pfad_257" data-name="Pfad 257" d="M198.5,37.05H38.75V234.112H188.708v.08h9.785V37.133h0V37.05ZM48.535,224.327V46.837H188.708V224.327Z" transform="translate(-38.698 -37.05)" fill="#fff"/>
      <g id="Gruppe_1459" data-name="Gruppe 1459" transform="translate(0.58 217.305)">
        <path id="Pfad_258" data-name="Pfad 258" d="M63.706,827.571l-1.2,3.3a16.406,16.406,0,0,0-8.791-2.833c-4.938-.025-8.382,3.723-8.382,9.373,0,5.615,3.455,9.4,8.4,9.4a16.545,16.545,0,0,0,8.821-2.886l1.2,3.286a17.188,17.188,0,0,1-10.174,3.7c-7.782,0-12.919-6.034-12.919-13.5,0-7.515,5.137-13.538,12.919-13.5A17.034,17.034,0,0,1,63.706,827.571Z" transform="translate(-40.66 -823.907)" fill="#fff"/>
        <path id="Pfad_259" data-name="Pfad 259" d="M163.721,837.4c0,7.465-5.12,13.5-13.01,13.5-7.838,0-13.01-6.034-13.01-13.5,0-7.515,5.173-13.5,13.01-13.5C158.6,823.9,163.721,829.932,163.721,837.4Zm-13.027-9.37c-4.949,0-8.321,3.905-8.321,9.37,0,5.427,3.38,9.37,8.338,9.37,4.982,0,8.338-3.941,8.338-9.37s-3.355-9.37-8.354-9.37Z" transform="translate(-110.9 -823.9)" fill="#fff"/>
        <path id="Pfad_260" data-name="Pfad 260" d="M274.777,851.737h-4.013L257.11,833.5v18.236h-4.46V825.78h4.013l13.654,18.3v-18.3h4.46Z" transform="translate(-194.105 -825.261)" fill="#fff"/>
        <path id="Pfad_261" data-name="Pfad 261" d="M367.948,851.737l-2.035-5.557H354.379l-2.035,5.557H347.5l10.124-25.957h5.04l10.124,25.957Zm-3.386-9.324-4.413-12-4.416,12Z" transform="translate(-262.76 -825.261)" fill="#fff"/>
        <path id="Pfad_262" data-name="Pfad 262" d="M468.806,827.571l-1.2,3.3a16.406,16.406,0,0,0-8.791-2.833c-4.938-.025-8.382,3.723-8.382,9.373,0,5.615,3.452,9.4,8.4,9.4a16.545,16.545,0,0,0,8.821-2.886l1.2,3.286a17.188,17.188,0,0,1-10.174,3.7c-7.783,0-12.919-6.034-12.919-13.5,0-7.515,5.137-13.538,12.919-13.5A17.028,17.028,0,0,1,468.806,827.571Z" transform="translate(-333.883 -823.907)" fill="#fff"/>
        <path id="Pfad_263" data-name="Pfad 263" d="M555.316,829.547v22.19h-4.554v-22.19H542.67V825.78h20.738v3.767Z" transform="translate(-404.03 -825.261)" fill="#fff"/>
      </g>
      <g id="Gruppe_1460" data-name="Gruppe 1460" transform="translate(30.366 29.829)">
        <rect id="Rechteck_562" data-name="Rechteck 562" width="21.03" height="21" transform="translate(78.095 116.428)" fill="#00afe0"/>
        <path id="Pfad_264" data-name="Pfad 264" d="M452.32,202.592c0-16.833-7.294-28.926-21.03-35.612v71.183C444.715,229.7,452.32,220.286,452.32,202.592Z" transform="translate(-353.195 -160.926)" fill="#00afe0"/>
        <path id="Pfad_265" data-name="Pfad 265" d="M227.14,151.125V183.21c.019-.138.033-.268.055-.409,2.118-13.325,17.719-14.764,25.063-14.764,20.45,0,27.7,4.891,27.7,18.688,0,11.425-3.786,14.057-30.141,27.134-7.639,3.808-15.67,7.818-22.676,12.894v55.734h56.38v-21H231.9c.779-12.469,10.569-17.929,28.813-27.029l.293-.144c8.663-4.3,16.225-8.053,22.516-12.019V151.111c-8.188-3.985-18.669-6.051-31.263-6.051A52.954,52.954,0,0,0,227.14,151.125Z" transform="translate(-205.425 -145.06)" fill="#00a198"/>
        <path id="Pfad_266" data-name="Pfad 266" d="M229.614,315.24a18.809,18.809,0,0,1-2.474-6.54v13.066s5.2-3,5.046-3.137A15.686,15.686,0,0,1,229.614,315.24Z" transform="translate(-205.425 -263.507)" fill="#009f8f"/>
        <path id="Pfad_267" data-name="Pfad 267" d="M155.16,476.372V496.6h19.879V440.87C163.973,448.887,155.472,459.572,155.16,476.372Z" transform="translate(-153.324 -359.176)" fill="#99ca3f"/>
        <path id="Pfad_268" data-name="Pfad 268" d="M170.227,199.105V167.02a41.464,41.464,0,0,0-21.4,29.815c-1.226,8.542,1.37,18.191,4.294,23.154a43.4,43.4,0,0,0,5.029,6.716l12.08-7.5V206.145A22.317,22.317,0,0,1,170.227,199.105Z" transform="translate(-148.513 -160.955)" fill="#99ca3f"/>
      </g>
      <g id="Gruppe_1461" data-name="Gruppe 1461" transform="translate(108.461 118.127)">
        <path id="Pfad_269" data-name="Pfad 269" d="M451.8,484.8H431.29V464.78H451.8Z" transform="translate(-431.29 -464.78)" fill="#fff"/>
      </g>
      <g id="Gruppe_1462" data-name="Gruppe 1462" transform="translate(108.461 118.127)">
        <path id="Pfad_270" data-name="Pfad 270" d="M451.8,484.8H431.29V464.78H451.8Z" transform="translate(-431.29 -464.78)" fill="none"/>
      </g>
      <path id="Pfad_271" data-name="Pfad 271" d="M210.861,360.265l-17.327,10.967-10.7-16.915,17.327-10.967Z" transform="translate(-142.987 -258.759)" fill="none"/>
      <path id="Pfad_272" data-name="Pfad 272" d="M307.756,92.5H287.25V72.48h20.506Z" transform="translate(-218.569 -62.695)" fill="none"/>
      <path id="Pfad_273" data-name="Pfad 273" d="M94.766,275.33H74.26V255.31H94.766Z" transform="translate(-64.401 -195.033)" fill="none"/>
      <path id="Pfad_274" data-name="Pfad 274" d="M527.946,279.62H507.44V259.6h20.506Z" transform="translate(-377.949 -198.138)" fill="none"/>
      <path id="Pfad_275" data-name="Pfad 275" d="M527.946,588.43H507.44V568.41h20.506Z" transform="translate(-377.949 -421.664)" fill="none"/>
      <path id="Pfad_276" data-name="Pfad 276" d="M101.408,590.21H80.9V570.19h20.506Z" transform="translate(-69.207 -422.952)" fill="none"/>
      <path id="Pfad_277" data-name="Pfad 277" d="M314.826,662.7H294.32V642.68h20.506Z" transform="translate(-223.687 -475.423)" fill="none"/>
      <path id="Pfad_278" data-name="Pfad 278" d="M315.636,771.43H295.13V751.41h20.506Z" transform="translate(-224.273 -554.125)" fill="none"/>
      <path id="Pfad_279" data-name="Pfad 279" d="M314.826,724.955H294.32V715.17h20.506Z" transform="translate(-223.687 -527.893)" fill="none"/>
      <path id="Pfad_280" data-name="Pfad 280" d="M451.8,510.815H431.29V501.03H451.8Z" transform="translate(-322.829 -372.892)" fill="none"/>
      <path id="Pfad_281" data-name="Pfad 281" d="M307.246,46.935H286.74V37.15h20.506Z" transform="translate(-218.2 -37.122)" fill="none"/>
      <path id="Pfad_282" data-name="Pfad 282" d="M48.345,254.43v20.506H38.56V254.43Z" transform="translate(-38.56 -194.396)" fill="none"/>
      <path id="Pfad_283" data-name="Pfad 283" d="M591.535,258.72v20.506H581.75V258.72Z" transform="translate(-431.737 -197.501)" fill="none"/>
      <path id="Pfad_284" data-name="Pfad 284" d="M591.535,566.64v20.506H581.75V566.64Z" transform="translate(-431.737 -420.383)" fill="none"/>
    </g>
  </g>
</svg>
