<svg xmlns="http://www.w3.org/2000/svg" width="287.867" height="182.287" viewBox="0 0 287.867 182.287">
  <path id="Schnittmenge_2" data-name="Schnittmenge 2" d="M22186.854,22080.99l.844.068,7.539-38.867-40.725-15.105,50.314-34.314-9.59,49.42,71.256,26.422-79.3,12.949Zm-74.047-6.318-21.785-34.309,40.467-8.461,28.131-64.412-5.107,59.6,32.342,53.9Zm153.686-6.059.309-.051-57.137-79.094,4.1-2.791-6.535-1.795-.551.447-.326-.447-.156.836-51.684,41.367,35.879-48.732-30.1-12.412.477-1.094,79.4-54.1h.211l-.154.338,8.238,48.584-41.234,25.213,7.922.848,33.816-23.068-.5-2.992,46.979-28.73-.051-.275.43.045-.379.23.006.027-46.48,31.7,4.609,27.156,29.277,3.119-2.512,11.975-25.385-6.953,11.965,70.586.041-.006.074-.092-.074.344Zm13.85-63.7,30.205,8.277.023-.006-43.533,55.264Zm30.234,8.271h-.006l.006,0-.281-.494.234-.373-3.107-16.762,12.779,1.359-9.672,15.4.139.752-.092.115v0l66.922-4.854v14.254l-47.541,24.537ZM22154.512,22027.086ZM22154.512,22027.086Zm165.689-30.176,21.91-34.9-46.125-31.283,61.316,6.535-58.508-26.262h.477l58.357,26.3,19.869,4.713v23.182l-19.984-27.707-15.4,24.525,35.387,24v17Zm-37.348-3.973,12.771-61.008-.178-.963.379-.258h-.006l.074-.045.092.063-.1-.012.012-.051-.068.045.057.006-.258,1.215,11.8,63.621Zm-76.658-7.219.482-.389,2.986,4.139-4.838,3.3Zm-46.428-19.994.527.217-.676,1.549ZM22357.629,21937.3Zm19.869-37.189v24.686l-19.869,12.5Zm-135.141,10.652,56.145.24-3.232,19.664Zm56.145.24.023-.125.27.125Zm-58.123-.252.287-.625,1.691.637Z" transform="translate(-22090.162 -21899.857)" fill="none" stroke="#fff" stroke-width="1.061" opacity="0.28"/>
</svg>
